<?xml version="1.0" encoding="utf-8"?>
<!-- Generator: Adobe Illustrator 18.1.1, SVG Export Plug-In . SVG Version: 6.00 Build 0)  -->
<svg version="1.1" id="Layer_1" xmlns="http://www.w3.org/2000/svg" xmlns:xlink="http://www.w3.org/1999/xlink" x="0px" y="0px"
	 viewBox="0 0 96 96" enable-background="new 0 0 96 96" xml:space="preserve">
<g>
	<path fill="#FFFFFF" d="M537.1,298.1l-2.1-48.8c-0.1-1.2-1-2.1-2.2-2.1c-1.2,0-2.2,0.9-2.2,2.1l-2.1,48.8H537.1z"/>
	<path fill="#FFFFFF" d="M542.8,305.4h-20c-0.5,0-1-0.4-1-1v-10c0-0.6,0.5-1,1-1h20c0.6,0,1,0.4,1,1v10
		C543.8,305,543.4,305.4,542.8,305.4z"/>
	<path fill="#FFFFFF" d="M540,302.6h-14.4c-0.5,0-1-0.4-1-1v-10c0-0.6,0.5-1,1-1H540c0.5,0,1,0.4,1,1v10
		C541,302.1,540.6,302.6,540,302.6z"/>
	<path fill="#FFFFFF" d="M533.7,243.1c-0.3,0.4-0.8-0.1-0.6-0.5c0.9-2.1,3.1-5.3,8.7-5.4c5.2-0.1,7.9-1.4,9.4-3.4
		c0.3-0.3,0.8-0.1,0.7,0.3c-0.2,1.3-0.9,3.1-3,4.5C545.8,240.8,537.6,238.6,533.7,243.1z"/>
	<path fill="#FFFFFF" d="M529.9,302.5h-19.3c-0.8,0-1.5,0.7-1.5,1.5s0.7,1.5,1.5,1.5H555c0.8,0,1.5-0.7,1.5-1.5s-0.7-1.5-1.5-1.5
		h-19.3H529.9z"/>
</g>
</svg>
