<?xml version="1.0" encoding="utf-8"?>
<!-- Generator: Adobe Illustrator 18.1.1, SVG Export Plug-In . SVG Version: 6.00 Build 0)  -->
<svg version="1.1" id="Layer_1" xmlns="http://www.w3.org/2000/svg" xmlns:xlink="http://www.w3.org/1999/xlink" x="0px" y="0px"
	 viewBox="0 0 96 96" enable-background="new 0 0 96 96" xml:space="preserve">
<g>
	<circle fill="#FFFFFF" cx="485.5" cy="234.7" r="8.6"/>
	<g>
		<path fill="#FFFFFF" d="M485.7,221.4c0.2,0.5-0.4,0.7-0.7,0.4c-1.5-1.7-3.5-5.2-1.2-10.4c2.2-4.9,2.2-7.9,1-10.1
			c-0.2-0.4,0.2-0.8,0.6-0.5c1.1,0.8,2.4,2.2,2.8,4.7C488.9,209.3,483.2,216,485.7,221.4z"/>
		<path fill="#FFFFFF" d="M485.7,268.3c0.2,0.5-0.4,0.7-0.7,0.4c-1.5-1.7-3.5-5.2-1.2-10.4c2.2-4.9,2.2-7.9,1-10.1
			c-0.2-0.4,0.2-0.8,0.6-0.5c1.1,0.8,2.4,2.2,2.8,4.7C488.9,256.2,483.2,262.8,485.7,268.3z"/>
	</g>
	<g>
		<path fill="#FFFFFF" d="M498.8,234.9c-0.5,0.2-0.7-0.4-0.4-0.7c1.7-1.5,5.2-3.5,10.4-1.2c4.9,2.2,7.9,2.2,10.1,1
			c0.4-0.2,0.8,0.2,0.5,0.6c-0.8,1.1-2.2,2.4-4.7,2.8C510.9,238.1,504.3,232.4,498.8,234.9z"/>
		<path fill="#FFFFFF" d="M451.9,234.9c-0.5,0.2-0.7-0.4-0.4-0.7c1.7-1.5,5.2-3.5,10.4-1.2c4.9,2.2,7.9,2.2,10.1,1
			c0.4-0.2,0.8,0.2,0.5,0.6c-0.8,1.1-2.2,2.4-4.7,2.8C464,238.1,457.4,232.4,451.9,234.9z"/>
	</g>
	<g>
		<path fill="#FFFFFF" d="M498.8,234.9c-0.5,0.2-0.7-0.4-0.4-0.7c1.7-1.5,5.2-3.5,10.4-1.2c4.9,2.2,7.9,2.2,10.1,1
			c0.4-0.2,0.8,0.2,0.5,0.6c-0.8,1.1-2.2,2.4-4.7,2.8C510.9,238.1,504.3,232.4,498.8,234.9z"/>
		<path fill="#FFFFFF" d="M451.9,234.9c-0.5,0.2-0.7-0.4-0.4-0.7c1.7-1.5,5.2-3.5,10.4-1.2c4.9,2.2,7.9,2.2,10.1,1
			c0.4-0.2,0.8,0.2,0.5,0.6c-0.8,1.1-2.2,2.4-4.7,2.8C464,238.1,457.4,232.4,451.9,234.9z"/>
	</g>
	<g>
		<path fill="#FFFFFF" d="M476.4,225.1c0.5,0.2,0.2,0.8-0.2,0.8c-2.3-0.1-6.1-1.2-8.2-6.5c-1.9-5-4-7.1-6.4-7.9
			c-0.4-0.1-0.4-0.7,0-0.8c1.3-0.2,3.3-0.1,5.3,1.3C470.1,214.3,470.8,222.9,476.4,225.1z"/>
		<path fill="#FFFFFF" d="M509.5,258.2c0.5,0.2,0.2,0.8-0.2,0.8c-2.3-0.1-6.1-1.2-8.2-6.5c-1.9-5-4-7.1-6.4-7.9
			c-0.4-0.1-0.4-0.7,0-0.8c1.3-0.2,3.3-0.1,5.3,1.3C503.2,247.4,503.9,256.1,509.5,258.2z"/>
	</g>
	<g>
		<path fill="#FFFFFF" d="M495.2,225.6c-0.2,0.5-0.8,0.2-0.8-0.2c0.1-2.3,1.2-6.1,6.5-8.2c5-1.9,7.1-4,7.9-6.4
			c0.1-0.4,0.7-0.4,0.8,0c0.2,1.3,0.1,3.3-1.3,5.3C506,219.3,497.3,220,495.2,225.6z"/>
		<path fill="#FFFFFF" d="M462.1,258.8c-0.2,0.5-0.8,0.2-0.8-0.2c0.1-2.3,1.2-6.1,6.5-8.2c5-1.9,7.1-4,7.9-6.4
			c0.1-0.4,0.7-0.4,0.8,0c0.2,1.3,0.1,3.3-1.3,5.3C472.9,252.5,464.2,253.1,462.1,258.8z"/>
	</g>
</g>
</svg>
