<?xml version="1.0" encoding="utf-8"?>
<!-- Generator: Adobe Illustrator 18.1.1, SVG Export Plug-In . SVG Version: 6.00 Build 0)  -->
<svg version="1.1" id="Layer_1" xmlns="http://www.w3.org/2000/svg" xmlns:xlink="http://www.w3.org/1999/xlink" x="0px" y="0px"
	 viewBox="0 0 96 96" enable-background="new 0 0 96 96" xml:space="preserve">
<g>
	<g id="Layer_4_2_">
		<g>
			<path fill="#FFFFFF" d="M450.8,302.5h-19.3l-1.4-32.7c0-0.8-0.7-1.4-1.5-1.4s-1.4,0.6-1.5,1.4l-1.4,32.7h-19.3
				c-0.8,0-1.5,0.7-1.5,1.5s0.7,1.5,1.5,1.5h44.4c0.8,0,1.5-0.7,1.5-1.5S451.7,302.5,450.8,302.5z"/>
			<path fill="#FFFFFF" d="M428.6,265.5c2,0,3.7-1.7,3.7-3.7c0-2-1.7-3.7-3.7-3.7s-3.7,1.7-3.7,3.7
				C424.9,263.8,426.6,265.5,428.6,265.5z M428.6,261c0.4,0,0.7,0.3,0.7,0.7s-0.3,0.7-0.7,0.7s-0.7-0.3-0.7-0.7S428.2,261,428.6,261
				z"/>
		</g>
	</g>
	<path fill="#FFFFFF" d="M429,254.3c0.2,0.5-0.4,0.7-0.7,0.4c-1.5-1.7-3.5-5.2-1.2-10.4c2.2-4.9,2.2-7.9,1-10.1
		c-0.2-0.4,0.2-0.8,0.6-0.5c1.1,0.8,2.4,2.2,2.8,4.7C432.2,242.2,426.6,248.8,429,254.3z"/>
	<path fill="#FFFFFF" d="M405.3,275.4c-0.3,0.5-0.8,0-0.7-0.4c0.6-2.2,2.6-5.7,8.2-6.5c5.3-0.8,7.8-2.3,9.1-4.5
		c0.2-0.4,0.8-0.2,0.8,0.2c-0.1,1.3-0.6,3.2-2.5,4.9C417.2,271.7,408.6,270.4,405.3,275.4z"/>
	<path fill="#FFFFFF" d="M451.6,275.4c0.3,0.5,0.8,0,0.7-0.4c-0.6-2.2-2.6-5.7-8.2-6.5c-5.3-0.8-7.8-2.3-9.1-4.5
		c-0.2-0.4-0.8-0.2-0.8,0.2c0.1,1.3,0.6,3.2,2.5,4.9C439.7,271.7,448.3,270.4,451.6,275.4z"/>
</g>
</svg>
